<?xml version="1.0" encoding="UTF-8" standalone="no"?>
<svg
   xmlns:dc="http://purl.org/dc/elements/1.1/"
   xmlns:cc="http://creativecommons.org/ns#"
   xmlns:rdf="http://www.w3.org/1999/02/22-rdf-syntax-ns#"
   xmlns:svg="http://www.w3.org/2000/svg"
   xmlns="http://www.w3.org/2000/svg"
   xmlns:xlink="http://www.w3.org/1999/xlink"
   xmlns:sodipodi="http://sodipodi.sourceforge.net/DTD/sodipodi-0.dtd"
   xmlns:inkscape="http://www.inkscape.org/namespaces/inkscape"
   width="16"
   height="16"
   viewBox="0 0 16 16"
   version="1.1"
   id="svg8"
   inkscape:version="1.0.1 (3bc2e813f5, 2020-09-07)"
   sodipodi:docname="icon.svg">
  <defs
     id="defs2">
    <linearGradient
       inkscape:collect="always"
       id="Background">
      <stop
         style="stop-color:#34714d;stop-opacity:1;"
         offset="0"
         id="stop906" />
      <stop
         style="stop-color:#376a8b;stop-opacity:1"
         offset="0.3888889"
         id="stop914" />
      <stop
         style="stop-color:#376a8b;stop-opacity:1"
         offset="0.5625"
         id="stop916" />
      <stop
         style="stop-color:#9b3838;stop-opacity:1"
         offset="1"
         id="stop908" />
    </linearGradient>
    <linearGradient
       inkscape:collect="always"
       xlink:href="#Background"
       id="linearGradient912"
       x1="5"
       y1="-1"
       x2="10"
       y2="17"
       gradientUnits="userSpaceOnUse" />
  </defs>
  <sodipodi:namedview
     id="base"
     pagecolor="#ffffff"
     bordercolor="#666666"
     borderopacity="1.0"
     inkscape:pageopacity="0.0"
     inkscape:pageshadow="2"
     inkscape:zoom="32.488982"
     inkscape:cx="6.0735976"
     inkscape:cy="7.2040368"
     inkscape:document-units="px"
     inkscape:current-layer="layer1"
     inkscape:document-rotation="0"
     showgrid="true"
     units="px"
     inkscape:snap-grids="true"
     inkscape:pagecheckerboard="false"
     inkscape:window-width="956"
     inkscape:window-height="1015"
     inkscape:window-x="0"
     inkscape:window-y="0"
     inkscape:window-maximized="1">
    <inkscape:grid
       type="xygrid"
       id="grid889" />
  </sodipodi:namedview>
  <metadata
     id="metadata5">
    <rdf:RDF>
      <cc:Work
         rdf:about="">
        <dc:format>image/svg+xml</dc:format>
        <dc:type
           rdf:resource="http://purl.org/dc/dcmitype/StillImage" />
        <dc:title />
      </cc:Work>
    </rdf:RDF>
  </metadata>
  <g
     inkscape:label="Layer 1"
     inkscape:groupmode="layer"
     id="layer1">
    <rect
       id="rect16-7-1"
       width="16"
       height="16"
       x="0"
       y="0"
       style="fill:url(#linearGradient912);fill-opacity:1;stroke-width:8.16898" />
    <g
       aria-label="Co"
       id="text12"
       style="font-style:normal;font-weight:normal;font-size:9px;line-height:1.25;font-family:sans-serif;text-align:center;letter-spacing:-0.4px;text-anchor:middle;fill:#ffffff;fill-opacity:1;stroke:none;stroke-width:0.264583">
      <path
         d="m 4.4954102,7.9736328 q 0,0.9887695 0.3076171,1.5249024 0.3076172,0.5361328 0.9184571,0.5361328 0.711914,0 1.0546875,-1.0722657 l 1.199707,0.2285157 q -0.5844726,1.863281 -2.2675781,1.863281 -1.2348633,0 -1.8852539,-0.782226 -0.6459961,-0.7866214 -0.6459961,-2.2983402 0,-3.027832 2.4960937,-3.027832 0.8173828,0 1.3666993,0.430664 0.5537109,0.4306641 0.8129882,1.2788086 L 6.6575195,6.9453125 Q 6.5300781,6.4794922 6.2751953,6.2246094 6.0203125,5.965332 5.6907227,5.965332 q -1.1953125,0 -1.1953125,2.0083008 z"
         style="font-style:normal;font-variant:normal;font-weight:bold;font-stretch:normal;font-size:9px;font-family:'Liberation Mono';-inkscape-font-specification:'Liberation Mono Bold';text-align:center;text-anchor:middle;fill:#ffffff;fill-opacity:1;stroke-width:0.264583"
         id="path899" />
      <path
         d="m 12.822949,8.5844727 q 0,1.1821289 -0.597656,1.8281253 -0.597656,0.641601 -1.718262,0.641601 -1.0810545,0 -1.6787108,-0.641601 Q 8.230664,9.7666016 8.230664,8.5844727 q 0,-1.1777344 0.5932617,-1.819336 0.5932617,-0.6416015 1.7094723,-0.6416015 2.289551,0 2.289551,2.4609375 z m -1.291992,0 q 0,-0.84375 -0.224121,-1.2260743 -0.224121,-0.3867187 -0.75586,-0.3867187 -0.544921,0 -0.7866206,0.3867187 -0.2373047,0.3867188 -0.2373047,1.2260743 0,0.8481445 0.2416992,1.2392578 0.2460941,0.3867185 0.7250981,0.3867185 0.544921,0 0.791015,-0.382324 0.246094,-0.3867187 0.246094,-1.2436523 z"
         style="font-style:normal;font-variant:normal;font-weight:bold;font-stretch:normal;font-size:9px;font-family:'Liberation Mono';-inkscape-font-specification:'Liberation Mono Bold';text-align:center;text-anchor:middle;fill:#ffffff;fill-opacity:1;stroke-width:0.264583"
         id="path901" />
    </g>
  </g>
</svg>
